<svg id="Group_731" data-name="Group 731" xmlns="http://www.w3.org/2000/svg" width="107.019" height="31.718" viewBox="0 0 107.019 31.718">
  <path id="Path_437" data-name="Path 437" d="M108.218,653.39a3.038,3.038,0,0,1-3.041,3.038H5.659a3.041,3.041,0,0,1-3.045-3.038V629.164a3.046,3.046,0,0,1,3.045-3.042h99.517a3.041,3.041,0,0,1,3.041,3.042Z" transform="translate(-1.908 -625.416)" fill="#fff"/>
  <path id="Path_438" data-name="Path 438" d="M103.269,655.226H3.751A3.752,3.752,0,0,1,0,651.481V627.257a3.754,3.754,0,0,1,3.751-3.749h99.517a3.756,3.756,0,0,1,3.751,3.749v24.225a3.751,3.751,0,0,1-3.75,3.744Z" transform="translate(0 -623.508)" fill="#a6a6a6"/>
  <path id="Path_439" data-name="Path 439" d="M108.218,653.39a3.038,3.038,0,0,1-3.041,3.038H5.659a3.041,3.041,0,0,1-3.045-3.038V629.164a3.046,3.046,0,0,1,3.045-3.042h99.517a3.041,3.041,0,0,1,3.041,3.042Z" transform="translate(-1.908 -625.416)"/>
  <path id="Path_440" data-name="Path 440" d="M51.325,652.53a4.6,4.6,0,0,1,2.19-3.858,4.71,4.71,0,0,0-3.709-2.005c-1.56-.164-3.073.934-3.868.934-.811,0-2.035-.918-3.354-.891a4.938,4.938,0,0,0-4.156,2.535c-1.8,3.112-.457,7.684,1.265,10.2.861,1.232,1.868,2.607,3.185,2.559,1.289-.052,1.771-.821,3.326-.821s1.993.821,3.337.79c1.383-.021,2.254-1.237,3.085-2.48a10.17,10.17,0,0,0,1.411-2.874,4.448,4.448,0,0,1-2.713-4.088Zm-2.538-7.518a4.525,4.525,0,0,0,1.036-3.243,4.611,4.611,0,0,0-2.981,1.542,4.306,4.306,0,0,0-1.063,3.124,3.808,3.808,0,0,0,3.008-1.422Z" transform="translate(-27.428 -636.838)" fill="#fff"/>
  <g id="Group_729" data-name="Group 729" transform="translate(33.654 14.276)">
    <path id="Path_441" data-name="Path 441" d="M133.542,687.089h-1.8l-.987-3.1h-3.43l-.94,3.1h-1.754l3.4-10.555h2.1l3.414,10.555Zm-3.085-4.4-.892-2.756q-.141-.423-.532-1.989H129q-.157.674-.5,1.989l-.877,2.756Zm11.809.5a4.31,4.31,0,0,1-1.055,3.069,3.093,3.093,0,0,1-2.346,1,2.349,2.349,0,0,1-2.173-1.08v3.994H135v-8.2q0-1.219-.062-2.5h1.487l.095,1.206h.032a3.008,3.008,0,0,1,4.815-.3,4.209,4.209,0,0,1,.9,2.8Zm-1.723.062a3.138,3.138,0,0,0-.5-1.833,1.733,1.733,0,0,0-1.472-.751,1.758,1.758,0,0,0-1.135.415,1.924,1.924,0,0,0-.665,1.089,2.208,2.208,0,0,0-.079.515v1.27a2.036,2.036,0,0,0,.509,1.4,1.69,1.69,0,0,0,1.323.572,1.733,1.733,0,0,0,1.487-.736,3.239,3.239,0,0,0,.533-1.942Zm10.477-.062a4.31,4.31,0,0,1-1.055,3.069,3.1,3.1,0,0,1-2.347,1,2.349,2.349,0,0,1-2.173-1.08v3.994h-1.691v-8.2q0-1.219-.063-2.5h1.487l.095,1.206h.032a3.009,3.009,0,0,1,4.816-.3,4.213,4.213,0,0,1,.9,2.8Zm-1.724.062a3.14,3.14,0,0,0-.5-1.833,1.73,1.73,0,0,0-1.471-.751,1.766,1.766,0,0,0-1.137.415,1.922,1.922,0,0,0-.665,1.089,2.259,2.259,0,0,0-.079.515v1.27a2.043,2.043,0,0,0,.508,1.4,1.694,1.694,0,0,0,1.324.572,1.731,1.731,0,0,0,1.487-.736,3.239,3.239,0,0,0,.533-1.942Zm11.511.876a2.82,2.82,0,0,1-.938,2.193,4.159,4.159,0,0,1-2.875.924,5.018,5.018,0,0,1-2.733-.658l.391-1.41a4.7,4.7,0,0,0,2.443.658,2.3,2.3,0,0,0,1.487-.431,1.407,1.407,0,0,0,.534-1.15,1.474,1.474,0,0,0-.439-1.081,4.078,4.078,0,0,0-1.456-.814q-2.772-1.034-2.773-3.024a2.67,2.67,0,0,1,.979-2.13,3.87,3.87,0,0,1,2.592-.83,5.122,5.122,0,0,1,2.4.5l-.424,1.379a4.188,4.188,0,0,0-2.028-.485,2.062,2.062,0,0,0-1.4.438,1.256,1.256,0,0,0-.424.957,1.293,1.293,0,0,0,.486,1.033,5.48,5.48,0,0,0,1.534.814,5.2,5.2,0,0,1,2,1.283,2.673,2.673,0,0,1,.645,1.83Zm5.606-3.381h-1.864v3.7q0,1.41.987,1.409a2.968,2.968,0,0,0,.751-.079l.047,1.284a3.832,3.832,0,0,1-1.315.187,2.028,2.028,0,0,1-1.567-.611,3,3,0,0,1-.564-2.052v-3.837h-1.11v-1.269h1.11v-1.394l1.661-.5v1.895h1.864v1.272Zm8.393,2.474a4.174,4.174,0,0,1-1,2.881,3.573,3.573,0,0,1-2.787,1.159,3.407,3.407,0,0,1-2.671-1.11,4.049,4.049,0,0,1-.995-2.8,4.141,4.141,0,0,1,1.026-2.9,3.555,3.555,0,0,1,2.765-1.128,3.478,3.478,0,0,1,2.693,1.112,4,4,0,0,1,.972,2.786Zm-1.753.039a3.405,3.405,0,0,0-.453-1.8,1.673,1.673,0,0,0-1.519-.906,1.7,1.7,0,0,0-1.551.906,3.464,3.464,0,0,0-.454,1.827,3.4,3.4,0,0,0,.454,1.8,1.734,1.734,0,0,0,3.056-.015A3.423,3.423,0,0,0,173.053,683.259Zm7.252-2.295a2.955,2.955,0,0,0-.533-.047,1.6,1.6,0,0,0-1.379.674,2.539,2.539,0,0,0-.422,1.5v3.993H176.28v-5.214q0-1.315-.049-2.4H177.7l.062,1.456h.047a2.613,2.613,0,0,1,.845-1.206,2.046,2.046,0,0,1,1.222-.408,2.7,2.7,0,0,1,.423.031Zm7.563,1.958a3.96,3.96,0,0,1-.062.767h-5.073a2.207,2.207,0,0,0,.736,1.724,2.516,2.516,0,0,0,1.659.531,5.61,5.61,0,0,0,2.053-.359l.265,1.173a6.341,6.341,0,0,1-2.552.47,3.7,3.7,0,0,1-2.781-1.041,3.847,3.847,0,0,1-1.01-2.795,4.359,4.359,0,0,1,.941-2.865,3.241,3.241,0,0,1,2.661-1.221,2.836,2.836,0,0,1,2.491,1.221,4.107,4.107,0,0,1,.671,2.394Zm-1.613-.439a2.287,2.287,0,0,0-.328-1.3,1.476,1.476,0,0,0-1.347-.706,1.6,1.6,0,0,0-1.346.689,2.526,2.526,0,0,0-.5,1.315Z" transform="translate(-124.631 -676.377)" fill="#fff"/>
  </g>
  <g id="Group_730" data-name="Group 730" transform="translate(34.284 5.197)">
    <path id="Path_442" data-name="Path 442" d="M131.344,648.213h-.886l-.485-1.524h-1.686l-.462,1.524h-.862l1.67-5.188h1.031Zm-1.516-2.163-.439-1.355c-.046-.139-.131-.462-.262-.977h-.016c-.054.223-.131.547-.247.977l-.431,1.355Zm5.693-1.578-1.417,3.74H133.3l-1.37-3.74h.893l.639,1.978c.108.331.2.646.269.946h.023c.062-.269.154-.584.269-.946l.631-1.978Zm3.016,3.74-.062-.431h-.023a1.276,1.276,0,0,1-1.093.516,1.089,1.089,0,0,1-1.147-1.1c0-.923.8-1.4,2.186-1.4v-.069c0-.493-.262-.739-.777-.739a1.746,1.746,0,0,0-.977.278l-.169-.547a2.4,2.4,0,0,1,1.286-.324c.977,0,1.471.516,1.471,1.547v1.378a5.557,5.557,0,0,0,.054.893Zm-.116-1.863c-.924,0-1.386.224-1.386.754a.53.53,0,0,0,.569.584.8.8,0,0,0,.816-.761v-.578Zm2.661-2.494a.5.5,0,1,1,.524-.5A.488.488,0,0,1,141.081,643.856Zm.432,4.357h-.831v-3.74h.831v3.74Zm2.308,0h-.831v-5.457h.831v5.457Zm3.533,0-.062-.431h-.023a1.276,1.276,0,0,1-1.093.516,1.089,1.089,0,0,1-1.147-1.1c0-.923.8-1.4,2.186-1.4v-.069c0-.493-.262-.739-.777-.739a1.746,1.746,0,0,0-.977.278l-.17-.547a2.393,2.393,0,0,1,1.286-.324c.977,0,1.471.516,1.471,1.548v1.378a5.773,5.773,0,0,0,.053.893Zm-.116-1.863c-.924,0-1.386.224-1.386.754a.53.53,0,0,0,.569.584.8.8,0,0,0,.816-.761Zm4.177,1.948a1.269,1.269,0,0,1-1.176-.662h-.017l-.048.577h-.708c.023-.3.031-.639.031-1.008v-4.449h.832v2.264h.016a1.283,1.283,0,0,1,1.193-.623c.9,0,1.532.77,1.532,1.893a1.8,1.8,0,0,1-1.655,2.008Zm-.169-3.249a.956.956,0,0,0-.916.993v.654a.916.916,0,0,0,.9.939c.622,0,.993-.508.993-1.316,0-.755-.386-1.271-.979-1.271Zm3.884,3.164h-.83v-5.457h.83Zm4.525-1.67h-2.5a1.074,1.074,0,0,0,1.178,1.108,2.8,2.8,0,0,0,1.008-.177l.129.578a3.117,3.117,0,0,1-1.254.231,1.737,1.737,0,0,1-1.863-1.885,1.827,1.827,0,0,1,1.77-2.009,1.855,1.855,0,0,1,1.528,2.155Zm-.762-.592c0-.578-.293-.985-.824-.985a.987.987,0,0,0-.909.985Zm5.8,2.348a1.78,1.78,0,0,1-1.8-1.924,1.822,1.822,0,0,1,1.864-1.978,1.767,1.767,0,0,1,1.8,1.917A1.833,1.833,0,0,1,164.693,648.3Zm.032-3.295c-.6,0-.985.561-.985,1.347,0,.77.393,1.332.977,1.332s.976-.6.976-1.348-.384-1.331-.969-1.331Zm6.3,3.21h-.83v-2.148c0-.662-.254-.993-.754-.993a.864.864,0,0,0-.832.916v2.225h-.831v-2.671c0-.331-.009-.685-.031-1.07h.731l.039.577h.023a1.342,1.342,0,0,1,1.185-.654c.784,0,1.3.6,1.3,1.578v2.241Zm5.439-3.117h-.915v1.817q0,.693.484.693a1.654,1.654,0,0,0,.369-.039l.023.631a1.846,1.846,0,0,1-.646.093c-.655,0-1.046-.362-1.046-1.309V645.1h-.546v-.623h.546v-.685l.815-.247v.931h.915v.624Zm4.4,3.117h-.832v-2.132c0-.669-.254-1.008-.754-1.008a.814.814,0,0,0-.83.885v2.255h-.832v-5.457h.832V645h.016a1.259,1.259,0,0,1,1.124-.608c.792,0,1.277.615,1.277,1.594Zm4.247-1.67H182.62a1.072,1.072,0,0,0,1.177,1.108,2.8,2.8,0,0,0,1.008-.177l.13.578a3.121,3.121,0,0,1-1.255.231,1.737,1.737,0,0,1-1.863-1.885,1.827,1.827,0,0,1,1.77-2.009,1.572,1.572,0,0,1,1.555,1.778,1.606,1.606,0,0,1-.028.377Zm-.762-.592c0-.578-.292-.985-.823-.985a.986.986,0,0,0-.909.985Z" transform="translate(-126.963 -642.756)" fill="#fff"/>
  </g>
</svg>
