<svg id="Group_707" data-name="Group 707" xmlns="http://www.w3.org/2000/svg" xmlns:xlink="http://www.w3.org/1999/xlink" width="357.451" height="84.635" viewBox="0 0 357.451 84.635">
  <defs>
    <linearGradient id="linear-gradient" x1="-0.458" y1="3.597" x2="-0.458" y2="3.607" gradientUnits="objectBoundingBox">
      <stop offset="0" stop-color="#fafbfc"/>
      <stop offset="0.467" stop-color="#f8f9fa"/>
      <stop offset="0.59" stop-color="#f5f5f7"/>
      <stop offset="0.663" stop-color="#f8f8fa"/>
      <stop offset="1" stop-color="#fafafc"/>
    </linearGradient>
    <linearGradient id="linear-gradient-2" x1="-9.875" y1="6.579" x2="-9.875" y2="6.601" gradientUnits="objectBoundingBox">
      <stop offset="0" stop-color="#fff"/>
      <stop offset="0.002" stop-color="#fefefe"/>
      <stop offset="0.06" stop-color="#f1f0f4"/>
      <stop offset="0.132" stop-color="#e9e8ee"/>
      <stop offset="0.258" stop-color="#e7e6ed"/>
      <stop offset="0.74" stop-color="#f6f6f7"/>
      <stop offset="1" stop-color="#f2f2f5"/>
    </linearGradient>
    <linearGradient id="linear-gradient-3" x1="-3.334" y1="6.42" x2="-3.334" y2="6.44" gradientUnits="objectBoundingBox">
      <stop offset="0" stop-color="#fff"/>
      <stop offset="0.188" stop-color="#e7e6ed"/>
      <stop offset="0.695" stop-color="#f4f4f5"/>
      <stop offset="1" stop-color="#f0f0f2"/>
    </linearGradient>
    <linearGradient id="linear-gradient-4" x1="-1.211" y1="5.782" x2="-1.211" y2="5.8" gradientUnits="objectBoundingBox">
      <stop offset="0" stop-color="#fff"/>
      <stop offset="0.011" stop-color="#fbfbfc"/>
      <stop offset="0.1" stop-color="#e5e4e8"/>
      <stop offset="0.185" stop-color="#d7d6dd"/>
      <stop offset="0.258" stop-color="#d3d2d9"/>
      <stop offset="0.51" stop-color="#e6e5e8"/>
      <stop offset="0.756" stop-color="#f5f4f4"/>
      <stop offset="1" stop-color="#f0f0f2"/>
    </linearGradient>
    <linearGradient id="linear-gradient-5" x1="-18.425" y1="46.339" x2="-18.425" y2="46.491" gradientUnits="objectBoundingBox">
      <stop offset="0" stop-color="#fff"/>
      <stop offset="0.039" stop-color="#f8f8fa"/>
      <stop offset="0.156" stop-color="#ebeaf0"/>
      <stop offset="0.258" stop-color="#e7e6ed"/>
      <stop offset="0.639" stop-color="#f6f6f7"/>
      <stop offset="1" stop-color="#fff"/>
    </linearGradient>
  </defs>
  <path id="Path_273" data-name="Path 273" d="M416.9,196.692l-2.982,7.456,26.3-.347,9.7-2.4,3.246-2.011-20.419-.975,3.689-3.313,4.925-2.55,9.909-.579,4.365.307,1.507-1.159-1.777-8.345-2.936-8.345-.579-.231-7.51-12.264-2.156-2.1a54.8,54.8,0,0,0-5.158-3.187,75.509,75.509,0,0,0-23.177-6.17c-12.084-1.364-26.677-2.334-26.677-2.334l-31.2-1.734L333.465,145.4l-17.327-7.721-28.546-9.693-15.526-3.815-15.243-2.793-15.764-1.136-18.746.095-17.32,1.446-20.919,3.245-28.723,6.8-14.321,3.728-13.207,2.762-12.994,1.491-1.278,2.13,1.277,4.14-.387,4.172-1.584,3.9-5.949,8.074-3.647,7.9-2.279.149-.525,6.789,1.937,7.429,4.826,5.462,5.08,3.244,21.063,6.258,7.882.853L137.2,186.892l2.13-14.912,13.847-10.438,19.812.426,13.633,12.781,3.408,17.468-5.964,11.626,188.528.3-4.9-13.208.426-16.83,9.8-11.077,13.889-3.749,13.591,2.688,10.225,10.012,1.917,13.208Z" transform="translate(-99.936 -119.98)" fill-rule="evenodd" fill="url(#linear-gradient)"/>
  <path id="Path_274" data-name="Path 274" d="M465.872,205.27c3.168-5.254,8.576-24.883-9.04-37.859a17.463,17.463,0,0,1,7.031-1.545,34.38,34.38,0,0,0,12.207,8.422,198.063,198.063,0,0,0,19.741,6.181c3.555,6.645,4.867,16.3,4.867,16.3l3.728.329-1.214,1.14s-3.5-.218-8.356-.36a16.777,16.777,0,0,0-9.624,2.378,68.822,68.822,0,0,0-6.181,5.07Z" transform="translate(-147.336 -126.048)" fill-rule="evenodd" fill="url(#linear-gradient-2)"/>
  <path id="Path_275" data-name="Path 275" d="M137.086,201.881l-21.4-3.013s-16.449-6.712-12.13-23.256c6.259-.284,26.6.231,26.6.231a6.176,6.176,0,0,0-2.144-.85c-1.04-.135-20.981-.85-20.981-.85a28.059,28.059,0,0,1,3.863-6.645c1.894-.29,7.552-1.214,10.972-1.854s10.121-2.531,13.212-4.925c11.821-.116,16.646,3.458,16.646,3.458C137.048,170.976,131.059,189.133,137.086,201.881Z" transform="translate(-100.252 -125.363)" fill-rule="evenodd" fill="url(#linear-gradient-3)"/>
  <path id="Path_276" data-name="Path 276" d="M463.148,214.1l29.852.994,4-.908,3.786-1.622a203.427,203.427,0,0,1-21.3-.58,4.073,4.073,0,0,1-2.463.927c-1.214.01-13.289-.347-13.289-.347Z" transform="translate(-148.177 -132.182)" fill="#9ea7b8" fill-rule="evenodd"/>
  <path id="Path_277" data-name="Path 277" d="M200.11,213.391l181.936.347-.579-1-5.254-.077s-.347-.368-8.345-.772-140.291-.694-145.68-.637a98.269,98.269,0,0,0-11.976,1.1l-10.006-.193Z" transform="translate(-113.19 -132.083)" fill="#9ea7b8" fill-rule="evenodd"/>
  <path id="Path_278" data-name="Path 278" d="M117.82,205.96l23.3,3.938-1.159-2.24-22.975-3.328-4.768-1.347Z" transform="translate(-101.5 -130.985)" fill="#9ea7b8" fill-rule="evenodd"/>
  <path id="Path_279" data-name="Path 279" d="M132.369,201.911l3.616,1.162-21.093-2.6Z" transform="translate(-101.856 -130.651)" fill="#fff" fill-rule="evenodd"/>
  <path id="Path_280" data-name="Path 280" d="M472.6,208.205c1.269.052,7.109,1.1,7.109,1.1l-10.424-.513A12.889,12.889,0,0,1,472.6,208.205Z" transform="translate(-148.992 -131.679)" fill="#fff" fill-rule="evenodd"/>
  <path id="Path_281" data-name="Path 281" d="M485.526,165.756,479.9,164.3l-5.254-1.12-7.688-.85-2.861-.116,1.12,2.24,2.167,2.473,1.507,1,9.19.5,1.43-.387,8.345.425Z" transform="translate(-148.302 -125.562)" fill="#fff" fill-rule="evenodd"/>
  <path id="Path_282" data-name="Path 282" d="M494.642,165.955l-2.4.5-.057.927,3.535,4.9,4.52,7.118,3.709.889-4.346-7.688Z" transform="translate(-152.039 -126.059)" fill="#fff" fill-rule="evenodd"/>
  <path id="Path_283" data-name="Path 283" d="M497.439,179.423l-7.186-1.893-3.477-4.4a40.844,40.844,0,0,1,4.23-3.5A64.914,64.914,0,0,1,497.439,179.423Z" transform="translate(-151.319 -126.548)" fill="#e8e8ed" fill-rule="evenodd"/>
  <path id="Path_284" data-name="Path 284" d="M189.038,164.188a27.959,27.959,0,0,1,16.148-4.248c6.336.106,156.767,1.75,160.785,1.893,14.178.5,21.247,3.98,21.247,3.98-15.3,10.237-16.418,29.283-9.155,39.945-.8-.009-2.347.126-3.322.077a17.139,17.139,0,0,0-8.229-1.671c-37.177-.686-131.109-2.913-141.778-2.076-8.174.641-10.739,1.545-14.68,2.781-2.837.89-6.567.154-8.731.309C204.49,200.695,211.947,177.67,189.038,164.188Z" transform="translate(-111.718 -125.259)" fill-rule="evenodd" fill="url(#linear-gradient-4)"/>
  <path id="Path_285" data-name="Path 285" d="M216.283,174.451a147.14,147.14,0,0,0,32.136,17.091c8.875,3.37,24.109,5.693,42.569,6.416,29.75,1.172,68.694,2.075,83.2,3.145,0,0,1.236.154-.173-.367s-7.2-1.561-7.2-1.561-62.436-1.127-94.976-4.4c-36.033-3.626-59.512-24.628-60.923-24.183C213,172.172,215.737,174.071,216.283,174.451Z" transform="translate(-114.627 -126.675)" fill="#fff" fill-rule="evenodd"/>
  <path id="Path_286" data-name="Path 286" d="M186.6,157.508c-6.534.165-8.562,3.1-10.491,2.723a42.218,42.218,0,0,0-14.2.26c-1.78.372-4.925-2.55-8.866-2.839-3.414-.251-9.257-.376-9.257-.376s-1.174.954-1.9,1.42a6.133,6.133,0,0,1,2.819-.867,56.5,56.5,0,0,1,8.346.631,14.765,14.765,0,0,1,7.3,3.593l8.537-1.507,10.044,1.468s3.386-3.528,6.7-3.409c1.829.065,42.353.742,86.092,1.2,50.016.52,100.51,1,102.488,1.05,3.208.077,8.731,3.361,8.731,3.361s2.24-1.082,3.208-1.507c-3.283,1.236-6.451-2.279-11.938-2.588C370.166,159.9,193.135,157.344,186.6,157.508Z" transform="translate(-105.447 -124.905)" fill="#f9f9fc" fill-rule="evenodd"/>
  <path id="Path_287" data-name="Path 287" d="M420.317,166.984a22.245,22.245,0,0,0-4.674.52,7.036,7.036,0,0,0-1.04-.792,19.715,19.715,0,0,1,6.336-.908c6.528,7.167,13.959,8.964,26.247,12.8.629.2.76.316-.095.1-12.787-3.322-19.017-6.287-23.855-9.8C421.5,167.662,420.965,167.017,420.317,166.984Zm-65.191-5.563c-7.8-.041-150.083-.987-152.749-1.081a46.452,46.452,0,0,0-19.75,3.921c.319.145.694.42,1,.565,3.419-1.261,9.822-3.477,22.228-3.328,14.993.181,146.266,1.734,153.831,2.125,5.042.26,14.139,1.507,18.079,3.091a3.068,3.068,0,0,1,.811-.694A92.509,92.509,0,0,0,355.126,161.42Zm-205.521.734a20.36,20.36,0,0,1,4.964,1.7,4.593,4.593,0,0,0-.579.329,30.237,30.237,0,0,0-5.273-1.526,80.185,80.185,0,0,0-10.739-.753,25.657,25.657,0,0,1-5.254,2.067c-.311.1-.3-.014-.068-.1a26.723,26.723,0,0,0,6.056-2.665A48.616,48.616,0,0,1,149.606,162.155Z" transform="translate(-104.196 -125.311)" fill="#ebebed" fill-rule="evenodd"/>
  <path id="Path_288" data-name="Path 288" d="M461.5,160.718c8.04.29,21.455,4.012,21.455,4.012l.942.71-.9-.464a99.868,99.868,0,0,0-21.441-3.738c-3.355-.222-9.542,2.936-9.542,2.936s-1.893-.927-3.208-1.387C453.177,163.557,456.751,160.547,461.5,160.718Z" transform="translate(-146.269 -125.362)" fill="#f9f9fc" fill-rule="evenodd"/>
  <path id="Path_289" data-name="Path 289" d="M362.09,164.393a40.238,40.238,0,0,1-8.4-2.376L203.2,160.51l-12.112-1.8,28.568.694,134.21,1.275A25.072,25.072,0,0,0,362.09,164.393Z" transform="translate(-111.99 -125.096)" fill="#ccccd4" fill-rule="evenodd"/>
  <path id="Path_290" data-name="Path 290" d="M157.963,134.678c-5.16,1.314-16.116,3.98-16.723,4.154s-.53.444.166.328,7.688-1.236,16.728-3.4c7.071-1.692,22.136-6.722,34.02-9.5.85-.2,1.623-.819-.141-.47C183.63,127.453,163.123,133.364,157.963,134.678Z" transform="translate(-105.306 -120.704)" fill="#fff" fill-rule="evenodd"/>
  <path id="Path_291" data-name="Path 291" d="M280.716,124.026c22.155,3.052,42.939,8.808,69.646,21.22l-1.7-.107C322.342,133.259,303.451,127.619,280.716,124.026Z" transform="translate(-123.912 -120.483)" fill="#eef0f5" fill-rule="evenodd"/>
  <path id="Path_292" data-name="Path 292" d="M119.5,146.842a10.337,10.337,0,0,1,2.608,1.913c1.366,1.288,1.073,1.387.391,1.8-1.246.753-6.968,6-6.968,6l1.333-5.36-.3-3.8-.883-2.341Z" transform="translate(-101.94 -123.278)" fill="#e8e8ed" fill-rule="evenodd"/>
  <path id="Path_293" data-name="Path 293" d="M126.87,143.168a37.224,37.224,0,0,1-4.248.282c-.941,0-2.607.1-3.474.011s-1.369.18-.016.335a28.416,28.416,0,0,0,7.925-.068,41.1,41.1,0,0,0,8.042-2.05C135.086,141.555,129.162,142.926,126.87,143.168Z" transform="translate(-102.309 -122.829)" fill="#fff" fill-rule="evenodd"/>
  <path id="Path_294" data-name="Path 294" d="M120.042,148.547c-1.117-.63-2.376-1.362-2.376-1.362l.377,1.68a8.941,8.941,0,0,0,1.049.52,4.1,4.1,0,0,0,1.821.289C121.553,149.656,121.159,149.177,120.042,148.547Z" transform="translate(-102.225 -123.563)" fill="#f0f0f2" fill-rule="evenodd"/>
  <path id="Path_308" data-name="Path 308" d="M307.291,134.472l13.42,5.064,13.81,6-71.353-1.387-78.428-.987-4.659-3.495-2.356-2.434.425-2.589,3.94-2.167,13.1-3.709,17.655-3.689,19.122-1.97c7.186-.166,14.786-.513,22.022,0C273.745,124.516,290.055,128.866,307.291,134.472Z" transform="translate(-110.213 -120.324)" fill="#484a54" fill-rule="evenodd"/>
  <path id="Path_309" data-name="Path 309" d="M242.151,124.427c.318,1.239.954,3.338,1.474,5.968a2.806,2.806,0,0,0-1.691,2.957l.658,9.1-48.087-.607a9.634,9.634,0,0,0-2.746-1.609,6.354,6.354,0,0,0-2.367,0s-7.259-3.774-.694-6.627C196.289,130.323,216.515,124.5,242.151,124.427Z" transform="translate(-111.307 -120.536)" fill="#606170" fill-rule="evenodd"/>
  <path id="Path_310" data-name="Path 310" d="M257.39,124.694c.568,2.043,1.842,6.687,1.842,6.687l5.681,11.22,47.032.9-.095-.379s-4.8-.057-7.764-.284-5.761-6.35-2.13-5.965l16.947,1.8s-3.443-1.639-9.661-3.809C298.77,131.21,282.771,125.388,257.39,124.694Z" transform="translate(-120.809 -120.571)" fill="#606170" fill-rule="evenodd"/>
  <path id="Path_311" data-name="Path 311" d="M241.016,135.184q4.515.033,9.031.1L254.46,144l47.032.9-.094-.379s-4.8-.057-7.763-.284c-2.874-.22-5.59-5.982-2.445-5.982a2.947,2.947,0,0,1,.315.017l16.947,1.8s-2.768-1.288-7.825-3.084c1.929.1,3.835.157,5.75.323,9.356,2.933,22.1,8.689,22.1,8.689L185.27,143.954c-10.341-6.206-5.166-7.6-5.166-7.6q2.918-.144,5.878-.271c-3.2,2.654,2.464,5.6,2.464,5.6l2.847-.492,2.265,2.1,48.087.607Z" transform="translate(-110.357 -121.967)" fill="#373640"/>
  <path id="Path_312" data-name="Path 312" d="M232.883,135.146q4.535,0,9.083.033l.629,8.706-48.087-.607a12.165,12.165,0,0,0-2.989-1.54l-2.124-.069s-5.663-2.948-2.464-5.6C201.691,135.443,217.208,135.146,232.883,135.146Z" transform="translate(-111.307 -121.962)" fill="#43414e"/>
  <path id="Path_313" data-name="Path 313" d="M260.977,135.3c17.2.244,34.322.827,50.578,1.7,5.057,1.8,7.825,3.084,7.825,3.084l-16.947-1.8a2.944,2.944,0,0,0-.315-.017c-3.145,0-.433,5.762,2.445,5.982,2.964.226,7.763.284,7.763.284l.094.379-47.032-.9Z" transform="translate(-121.286 -121.982)" fill="#43414e"/>
  <path id="Path_314" data-name="Path 314" d="M330.415,144.064l-.054-.905-2.024-1.387-3.834-1.387-5.166-.959-5.485-.266-1.864.32.32,1.7,1.278,1.917,1.332,1.012,1.545.16,6.711.32,6.069-.213Z" transform="translate(-128.071 -122.495)" fill-rule="evenodd" fill="url(#linear-gradient-5)"/>
  <path id="Path_315" data-name="Path 315" d="M497.378,203.1l9.642.26-.694,3.684-2.715,3.208-19.885-.812,5.061-4.23,2.9-1.449Z" transform="translate(-150.914 -131)" fill="#212021" fill-rule="evenodd"/>
  <path id="Path_316" data-name="Path 316" d="M493.659,203.584l3.844-.445-.618,2.048-1.561,1.353-1.14-1.024Z" transform="translate(-152.235 -131.005)" fill="#fff" fill-rule="evenodd"/>
  <path id="Path_317" data-name="Path 317" d="M404.536,161.712c-.966.772-4.609,4-4.606,4.034-5.831-.611-16.148-1.192-20.711-4.682C385.813,161.08,397.95,161.526,404.536,161.712Z" transform="translate(-137.013 -125.409)" fill="#141213" fill-rule="evenodd"/>
  <path id="Path_318" data-name="Path 318" d="M355.76,137.652l26.572,8.733-25.508-.954-10.544-4.793c-25.168-10.355-47-16.3-68.1-19.482l26.018,3.535,28.771,6.574Z" transform="translate(-123.574 -120.101)" fill="#5b5e6b" fill-rule="evenodd"/>
  <path id="Path_319" data-name="Path 319" d="M275.884,121.054c22.443,2.381,52.917,11.251,81.027,24.321.52.244-1.04.232-2.178-.293-23.527-10.837-52.979-20.7-80.5-24Z" transform="translate(-123.049 -120.087)" fill-rule="evenodd"/>
  <path id="Path_320" data-name="Path 320" d="M327.6,131.689c13.718,3.484,40.544,10.53,52.522,15.061-3.267-.107-11.539-.479-14.806-.586C356.258,142.25,337.6,134.679,327.6,131.689Z" transform="translate(-130.148 -121.502)" fill="#393242" fill-rule="evenodd"/>
  <path id="Path_325" data-name="Path 325" d="M494.338,203.774l3.183-.52-.2.414-1.907.72a4.808,4.808,0,0,1-.094.812c-.066.173-.289.694-.612-.173A6.565,6.565,0,0,1,494.338,203.774Z" transform="translate(-152.325 -131.021)" fill="#9fa4ad" fill-rule="evenodd"/>
  <path id="Path_328" data-name="Path 328" d="M380.818,161.518c4.317,0,22.676.375,22.676.375l-2.047,1.507h-2.723l-.4.38,2.6.2-1.449,1.458s-6.219-.5-11.029-1.205A19.91,19.91,0,0,1,380.818,161.518Zm-2.742-.837,4.042,2.377,4.259,1.362,4.273.825,9.534.927,5.669-4.763Z" transform="translate(-136.861 -125.358)" fill="#fff"/>
  <path id="Path_339" data-name="Path 339" d="M500.949,178.8l-5.93-9.03a3.919,3.919,0,0,1,2.387-.491,74.617,74.617,0,0,1,6.257,10.158Z" transform="translate(-152.416 -126.499)" fill="#212021" fill-rule="evenodd"/>
  <path id="Path_340" data-name="Path 340" d="M497.132,168.7s-1.72-2.228-2.372-2.846a.388.388,0,0,0-.279-.087,6.433,6.433,0,0,0-2.193.433c-1,.421-.029,1.666-.029,1.666a97.154,97.154,0,0,1,7.649,11.517.535.535,0,0,0,.193.164l3.912.917s.5.108.331-.205-.688-1.229-.727-1.3a.234.234,0,0,0-.128-.1l-2.876-.723c-1.935-3.45-5.707-8.78-5.707-8.78a4.392,4.392,0,0,1,2.157-.372Zm-.509-.1a8.421,8.421,0,0,0-2.1.478c-.121.035-.184.14-.075.29,2.973,4.114,5.919,9.049,5.919,9.049a.2.2,0,0,0,.114.075l2.532.639.454.823s-3.019-.713-3.264-.765a109.194,109.194,0,0,0-7.449-11.336c-.531-.714-.562-1.19-.183-1.325a7.371,7.371,0,0,1,1.924-.4c.478.407,2.132,2.467,2.132,2.467Z" transform="translate(-151.992 -126.034)"/>
  <path id="Path_341" data-name="Path 341" d="M495.67,166.723a12.942,12.942,0,0,1,2.194,2.812l-.575.022a19.413,19.413,0,0,0-2.493-2.748Z" transform="translate(-152.386 -126.162)" fill="#9da3ac" fill-rule="evenodd"/>
  <path id="Path_342" data-name="Path 342" d="M495.744,166.843a12.635,12.635,0,0,1,1.97,2.473l-.5.01a23.912,23.912,0,0,0-2.2-2.434Zm.034-.271a.174.174,0,0,0-.15-.036l-.874.087c-.039,0-.274.087-.091.28a34.225,34.225,0,0,1,2.472,2.726.162.162,0,0,0,.134.062l.566-.021c.32-.007.173-.26.173-.26a11.945,11.945,0,0,0-2.229-2.839Z" transform="translate(-152.359 -126.136)"/>
  <path id="Path_361" data-name="Path 361" d="M136.233,159.089l2.54-2.56-8.989-.179a72.425,72.425,0,0,0-7.66.72c-5.364,2.693-8.837,7.578-10.16,9.236,2.05-.22,13.712-2.619,13.712-2.619l6.866-2.459Z" transform="translate(-101.466 -124.782)" fill="#eb0004" fill-rule="evenodd"/>
  <path id="Path_362" data-name="Path 362" d="M138.185,157.2l-.875.753-4.125.277a40.967,40.967,0,0,0-10.091-.39,29.392,29.392,0,0,1,3.328-.577C130.283,156.883,138.185,157.2,138.185,157.2Z" transform="translate(-102.947 -124.878)" fill="#ffb0b0" fill-rule="evenodd"/>
  <path id="Path_363" data-name="Path 363" d="M135.493,158.822s-1.127.068-3.283.33c-6.538,4.281-18.047,5.982-18.047,5.982a4.514,4.514,0,0,0,1.24.365C130.166,163.419,135.493,158.822,135.493,158.822Z" transform="translate(-101.759 -125.111)" fill="#5c0101" fill-rule="evenodd"/>
  <path id="Path_364" data-name="Path 364" d="M116.473,164.008s3.7-3.953,7.543-5.418a24.574,24.574,0,0,1,6.971.342C126.495,161.869,116.473,164.008,116.473,164.008Z" transform="translate(-102.066 -125.066)" fill="#6e0205" fill-rule="evenodd"/>
  <path id="Path_365" data-name="Path 365" d="M131,159.952l.822-.434L120.8,159.6l-.7.5Z" transform="translate(-102.548 -125.203)" fill="#ff2627" fill-rule="evenodd"/>
  <path id="Path_366" data-name="Path 366" d="M128.317,161.32l1.057-.479-10.426.12-.662.5Z" transform="translate(-102.307 -125.379)" fill="#ff2627" fill-rule="evenodd"/>
  <path id="Path_367" data-name="Path 367" d="M124.74,162.743l1.672-.525-9.175.232-.476.466Z" transform="translate(-102.104 -125.562)" fill="#ff2627" fill-rule="evenodd"/>
  <path id="Path_368" data-name="Path 368" d="M124.74,162.82l-7.976.173,1.175.216,4.132-.065Z" transform="translate(-102.105 -125.643)" fill="#450101" fill-rule="evenodd"/>
  <path id="Path_369" data-name="Path 369" d="M128.319,161.394l-10.031.142,1.345.23,6.543-.087Z" transform="translate(-102.308 -125.453)" fill="#450101" fill-rule="evenodd"/>
  <path id="Path_370" data-name="Path 370" d="M131,160.018l-10.906.147,1.535.155,7.729-.03Z" transform="translate(-102.548 -125.27)" fill="#450101" fill-rule="evenodd"/>
  <path id="Path_371" data-name="Path 371" d="M131.147,159.311l-9.342.087-.9.173,11.028-.087Z" transform="translate(-102.656 -125.176)" fill="#fff" fill-rule="evenodd"/>
  <path id="Path_372" data-name="Path 372" d="M128.569,160.682l-8.922.087-.6.173,10.426-.12Z" transform="translate(-102.409 -125.358)" fill="#fff" fill-rule="evenodd"/>
  <path id="Path_373" data-name="Path 373" d="M125.3,162.048l-7.532.2-.461.179,9.175-.232Z" transform="translate(-102.177 -125.54)" fill="#fff" fill-rule="evenodd"/>
  <path id="Path_374" data-name="Path 374" d="M128.676,157.355s5.879-.045,9.227.075c-.087.087-.313.27-.313.27l-3.914.27a47.141,47.141,0,0,0-7.441-.4C127.376,157.41,128.676,157.355,128.676,157.355Z" transform="translate(-103.365 -124.914)" fill="#fff" fill-rule="evenodd"/>
  <path id="Path_375" data-name="Path 375" d="M112.545,165.859c8.6-1.6,18.8-2.717,25.257-9.155-4.931-.106-11.253-.445-16.01.54-.475.1.155-.386,1.028-.553a81.421,81.421,0,0,1,16.248-.939c.7.008.954.181.624.552-6.64,7.385-18.106,8.323-27.378,10.051C111.667,166.477,111.669,166.022,112.545,165.859Z" transform="translate(-101.452 -124.699)" fill="#360000"/>
  <path id="Path_376" data-name="Path 376" d="M476.426,169.373l-7.028-.466s5.505,4.694,19.18,8.721c-1.507-1.913-3.585-4.5-3.585-4.5l3.86-3.451-4.565-.29-4.248-.271Z" transform="translate(-149.008 -126.452)" fill="#121010" fill-rule="evenodd"/>
  <path id="Path_377" data-name="Path 377" d="M485.8,167.214c.272.29.792.927.792.927s-5.392-.477-6-.5c-.867-.035-1.275.26-2.135.216l-7.319-.375-2.095-1.214-1.393-1.444,1,.142a7.992,7.992,0,0,0,2.894,1.652,32.841,32.841,0,0,0,5.85.533c.837-.009,2.03-.78,2.936-.668S484.131,166.879,485.8,167.214Z" transform="translate(-148.775 -125.909)" fill="#7c8494" fill-rule="evenodd"/>
  <path id="Path_378" data-name="Path 378" d="M478.487,164.9a4.758,4.758,0,0,1-2.341.858,35.533,35.533,0,0,1-5.641-.5,4.375,4.375,0,0,1-1.748-1.625Z" transform="translate(-148.923 -125.751)" fill="#c6c9cf" fill-rule="evenodd"/>
  <path id="Path_379" data-name="Path 379" d="M485.841,165.933c-8.138-1.809-10.577-2.793-21.722-3.567-.59-.041-.664-.82-.082-.776a95.509,95.509,0,0,1,21.068,3.836A1.1,1.1,0,0,1,485.841,165.933Z" transform="translate(-148.242 -125.479)"/>
  <path id="Path_380" data-name="Path 380" d="M464.538,162.108c2.358,6.05,9.671,9.392,15.159,11.567a134.643,134.643,0,0,0,20.842,6c.55.117.455.481-.087.367a131.364,131.364,0,0,1-23.072-6.834c-5.07-2.133-11.593-5.657-13.761-11.221C463.527,161.761,464.435,161.848,464.538,162.108Z" transform="translate(-148.238 -125.515)"/>
  <path id="Path_381" data-name="Path 381" d="M489.124,166.5a21.088,21.088,0,0,1,2.219,2.625c.3.393-.486.26-.7-.045a17.67,17.67,0,0,0-2.215-2.71C488.033,166,488.793,166.2,489.124,166.5Z" transform="translate(-151.524 -126.088)"/>
  <path id="Path_382" data-name="Path 382" d="M488.419,169.676c-2.12-.173-5.722-.392-8.262-.487-.462-.07-.808.26-1.227.26-2.442,0-5.414.044-8.773-.232-.582-.093-1.1-.768-.531-.678a81.3,81.3,0,0,0,9.109.394c.513-.023.753-.244,1.135-.226,3.173.151,5.52.238,8.5.6C488.866,169.371,489.042,169.763,488.419,169.676Z" transform="translate(-149.006 -126.402)"/>
  <path id="Path_383" data-name="Path 383" d="M467.123,163.78a8.238,8.238,0,0,0,3.121,2.942c1.154.56,5.89.88,8.275.853.448-.005.372.156-.246.219a27.083,27.083,0,0,1-3.969-.018,13.849,13.849,0,0,1-4.335-.555,8.5,8.5,0,0,1-3.295-3.3C466.46,163.431,466.955,163.4,467.123,163.78Z" transform="translate(-148.639 -125.736)"/>
  <path id="Path_384" data-name="Path 384" d="M485.511,166.408a116.4,116.4,0,0,0-17.369-2.729c-.23-.025-1.206-.62-.607-.555a113.871,113.871,0,0,1,17.468,3C485.537,166.261,485.511,166.408,485.511,166.408Z" transform="translate(-148.735 -125.682)"/>
  <path id="Path_385" data-name="Path 385" d="M330.6,151.8a.788.788,0,0,0-.339-1.525,34.911,34.911,0,0,0-7.421.071c-2.757.586-9.26,4-10.154,5.148-.66.848.76,1,2.2.994C317.56,156.484,326.779,153.47,330.6,151.8Z" transform="translate(-128.142 -123.952)" fill="#e6e6eb" fill-rule="evenodd"/>
  <path id="Path_386" data-name="Path 386" d="M379.739,213.849c-4.283-2.559-6.013-2.9-11.011-3.127-1.688-.078-3.387-.062-5.077-.1q-5.354-.112-10.708-.227-15.3-.329-30.6-.65c-22.485-.467-44.97-.936-67.458-1.214-5.837-.072-11.677-.142-17.513-.1-8.744.062-19.767-.226-27.355,4.776-.245.162-1.4-.027-1.234-.135,4.682-3.087,10.95-4.034,16.407-4.565,5.412-.525,10.864-.528,16.3-.52,8.662.019,17.324.158,25.986.295q34.524.544,69.044,1.337l23.322.5c2.822.06,5.646.1,8.469.169,5.387.138,7.614.763,12.2,3.505C380.94,214.056,379.932,213.967,379.739,213.849Z" transform="translate(-114.342 -131.65)" fill="#080808" fill-rule="evenodd"/>
  <path id="Path_388" data-name="Path 388" d="M318.17,143.855a8.19,8.19,0,0,0-3.1.637l.425.31A85.67,85.67,0,0,0,330,144.84c1.1-.193,1.04-.812,1.04-.812S319.578,143.942,318.17,143.855Z" transform="translate(-128.481 -123.12)" fill="#9ea7b8" fill-rule="evenodd"/>
  <path id="Path_389" data-name="Path 389" d="M103.51,173.1c2.53-7.3,9.586-16.854,15.912-22.1a9.425,9.425,0,0,1,4.793-1.828c32.165-5.06,64.609-2.705,97.039-2.472,18.763.135,37.528.146,56.29.383,18.294.231,36.565.939,54.849,1.505,19.394.6,38.787,1.2,58.134,2.731,9.827.78,19.791,1.624,29.506,3.313,8.549,1.486,16.039,3.555,22.831,8.381.511.362-.188.507-.637.166-9.705-7.379-28.774-9.22-44.477-10.655-16.163-1.474-32.374-2.254-48.592-2.8-36.126-1.223-72.214-2.124-108.362-2.3-20.223-.1-40.437-.5-60.657-.708-18.554-.192-37.3.061-55.646,3.054a9.4,9.4,0,0,0-4.5,1.828c-6.461,5.478-13.285,14.424-15.874,21.48C103.98,173.447,103.393,173.443,103.51,173.1Z" transform="translate(-100.34 -123.399)"/>
  <path id="Path_390" data-name="Path 390" d="M359.309,146.093c-32.507-10.224-66.238-21.63-100.447-24.536a254.553,254.553,0,0,0-83.257,6.085c-19.819,4.716-39.742,10.872-58.638,12.546-.466.042-1.032-.638-.355-.694,17.166-1.294,36.021-6.713,54.328-11.378a252.792,252.792,0,0,1,74.752-7.939,295.009,295.009,0,0,1,57.135,8.345c18.711,4.682,40.358,11.847,58.74,17.628C362.17,146.339,359.92,146.284,359.309,146.093Z" transform="translate(-102.043 -119.939)"/>
  <path id="Path_391" data-name="Path 391" d="M369.876,200.937c-20.47-1.151-40.687-1.248-61.059-2.091-21.806-.9-44.757-.593-65.231-8.822-11.757-4.724-22.337-11.955-32.646-19.082-.607-.422-.056-.385.29-.145,11.572,8,23.816,15.735,37.265,20.471,11.232,3.957,23.1,5.174,34.94,5.9,22.73,1.387,45.493,1.867,68.249,2.688,5.946.214,11.936.353,17.876.744.2.013,4.759.427,4.85.557C373.049,201.075,371.114,201.006,369.876,200.937Z" transform="translate(-114.595 -126.68)" fill="#080808" fill-rule="evenodd"/>
  <path id="Path_392" data-name="Path 392" d="M498.469,169.909a107.343,107.343,0,0,1,5.9,9.658c.059.14-.426.042-.512-.116a101.13,101.13,0,0,0-5.91-9.455C497.884,169.871,498.387,169.747,498.469,169.909Z" transform="translate(-152.804 -126.575)"/>
  <path id="Path_393" data-name="Path 393" d="M482.329,207.315c2.676-2.433,5.707-5.629,9.291-6.654,3.747-1.072,10.136-.932,14.487-.531a1.093,1.093,0,0,0,1.193-.984,1.187,1.187,0,0,0,0-.136c.154-2.82-2.53-12.382-4.414-16.312-.227-.474.42-.3.579.029,2.7,5.616,4.916,14.045,4.682,16.786a1.836,1.836,0,0,1-1.8,1.334c-2.627-.246-5.423-.029-8.063-.114-3.448-.11-6.437.017-9.377,1.925a48.782,48.782,0,0,0-6.007,4.79C482.618,207.714,482.022,207.595,482.329,207.315Z" transform="translate(-150.716 -128.247)"/>
  <path id="Path_394" data-name="Path 394" d="M116.956,143.09c-.341.657-.8,1.237-1.145,1.894-.142.274-1.105-.352-.976-.5a9.4,9.4,0,0,0,1.231-1.84C116.207,142.367,117.047,142.916,116.956,143.09Z" transform="translate(-101.847 -122.949)"/>
  <path id="Path_395" data-name="Path 395" d="M115.2,144.745c2.428.087,5.527,2.63,7.213,4.244.493.471.129.492-.2.173-1.41-1.348-4.665-3.578-6.7-3.653C114.9,145.487,114.441,144.718,115.2,144.745Z" transform="translate(-101.844 -123.238)"/>
  <path id="Path_396" data-name="Path 396" d="M333.295,145.324c-.183-.087-4.524-2.036-4.708-2.121a235.227,235.227,0,0,0-31.619-11.756,184.826,184.826,0,0,0-36.918-7.584,194.827,194.827,0,0,0-43.916.988,241.366,241.366,0,0,0-24.939,5.1,82.305,82.305,0,0,0-10.431,3.527c-1.4.579-3.2,1.6-2.695,3.364a3.653,3.653,0,0,0,.851,1.418c.851.941,5.065,3.976,5.9,4.613.409.312-.607.264-.8.116-1.261-.962-6.737-4.727-6.838-6.567-.138-2.549,3.615-3.7,5.407-4.376,7.821-2.948,18.691-4.974,26.87-6.676a195.143,195.143,0,0,1,45.43-2.409c14.037.821,27.082,3.544,40.587,7.468a238.043,238.043,0,0,1,33.937,12.592c.173.082,4.612,2.092,4.787,2.174C334.783,145.469,333.555,145.447,333.295,145.324Z" transform="translate(-110.14 -120.289)"/>
  <path id="Path_397" data-name="Path 397" d="M129.324,178.156c-5.475.019-21.533-.434-27.1.141-.892.093-1.223.633-1.387,1.971a27.387,27.387,0,0,0,.077,6.509c1.549,8.295,10.566,13.5,17.651,16.329,5.714,2.279,17.5,2.013,22.178,6.309.612.562-.309.927-.772.5-3.108-2.855-12.4-3.773-16.3-4.538a39.567,39.567,0,0,1-9.765-3.458c-6.584-3.059-12.445-7.716-13.833-15.145a33.334,33.334,0,0,1-.013-7.552,2.316,2.316,0,0,1,1.757-1.932c3.416-.092,23.081.193,27.255.579C129.772,177.936,130.165,178.153,129.324,178.156Z" transform="translate(-99.856 -127.565)"/>
  <path id="Path_398" data-name="Path 398" d="M503.679,211.461a167.488,167.488,0,0,1-19.969-.857c-.271-.029-.486-.505.189-.447,5.853.512,12.7.792,20.2.753C504.38,210.908,504.367,211.45,503.679,211.461Z" transform="translate(-150.877 -131.938)"/>
  <path id="Path_399" data-name="Path 399" d="M504.16,203.431a10.766,10.766,0,0,1-3.034,6.606c-.26.252.381.74.1.966-3.137,2.493-8.5,3.152-12.156,3.51-5.228.512-10.414.4-15.659.662-4.015.2-9.735-.116-13.405.464-.385.061-.291-.644.193-.694,2.2-.231,4.867-.27,7.688-.27,4.48,0,9.147.079,13.618-.211,4.718-.305,13.942.118,18.852-3.44.277-.2-.447-.665-.193-.889a9.931,9.931,0,0,0,3.208-6.626C503.4,203.058,504.185,203.041,504.16,203.431Z" transform="translate(-147.726 -131.007)"/>
  <path id="Path_400" data-name="Path 400" d="M378.535,160.621c5.672,4.731,13.976,4.422,21.086,5.272.473.056,1.258.57.4.471-7.562-.874-16.473-.756-22.576-5.845C377.205,160.314,378.319,160.442,378.535,160.621Z" transform="translate(-136.773 -125.322)"/>
  <path id="Path_401" data-name="Path 401" d="M381.289,161.226c-13.3-.626-27.188-.448-40.5-.552q-34.518-.269-69.035-.514c-26.713-.229-54.112-.45-80.815-1.258-.318-.01.059-.411.84-.388,44.366,1.342,88.112,1.24,132.494,1.555,18.64.133,37.692-.191,56.317.686C380.9,160.769,382.069,161.262,381.289,161.226Z" transform="translate(-111.955 -125.07)"/>
  <path id="Path_402" data-name="Path 402" d="M403.215,166.18a25.724,25.724,0,0,1,5.838-4.7c.3-.157,1.03-.039.694.145a24.751,24.751,0,0,0-5.718,4.752C403.816,166.632,402.942,166.479,403.215,166.18Z" transform="translate(-140.198 -125.455)"/>
  <path id="Path_403" data-name="Path 403" d="M312.3,138.842c4.317-.355,9.272.636,13.414,1.759,1.387.375,8.56,3.06,4.008,3.737-4.264.634-9.918.289-14.155.072a2.989,2.989,0,0,1-1.26-.237C313.079,143.393,309.353,139.084,312.3,138.842Zm.329,1.825c.26.89,1.4,2.9,2.346,3.247a1.566,1.566,0,0,0,.637.139c2.742.207,6.318.276,9.017.265a31.66,31.66,0,0,0,4.491-.351c2.314-.347-1.079-1.907-1.848-2.273-3.656-1.734-8.035-2.071-12.013-2.395-1.2-.1-3.138-.38-2.63,1.368Z" transform="translate(-127.965 -122.443)"/>
  <path id="Path_404" data-name="Path 404" d="M189.625,167.989c-10.151-8.315-24.61-8.576-35.426-1.358-.414.277-.924.075-.4-.277a31.153,31.153,0,0,1,17.847-5.667,29.071,29.071,0,0,1,18.157,6.98C190.382,168.141,190.058,168.344,189.625,167.989Z" transform="translate(-107.001 -125.359)"/>
  <path id="Path_405" data-name="Path 405" d="M452.635,167.7c-10.151-8.315-24.61-8.576-35.427-1.357-.414.277-.821.087-.294-.268a28.934,28.934,0,0,1,35.966,1.387C453.457,167.939,453.067,168.056,452.635,167.7Z" transform="translate(-141.994 -125.331)"/>
  <path id="Path_406" data-name="Path 406" d="M497.508,203.38c-.162,1.22-1.01,3.1-2.356,3.361-1.44.273-1.9-1.76-2.327-2.966-.071-.2.983-.082,1.082.2.173.5.492,1.821,1,2.18.279.2.583.007.9-.238a3.791,3.791,0,0,0,1.23-2.5C497.065,203.2,497.546,203.1,497.508,203.38Z" transform="translate(-152.123 -131.014)"/>
  <path id="Path_407" data-name="Path 407" d="M112.38,159.6c4.075-4.377,4.656-10.133,2.1-14.565-.233-.529.867-.44,1.033-.066,2.283,4.461,1.872,9.735-2.724,14.862C112.5,160.146,112.043,159.963,112.38,159.6Z" transform="translate(-101.506 -123.228)"/>
  <path id="Path_410" data-name="Path 410" d="M202.83,158.621l-3.911.319,2.047.6,3.835.368,6.551-.184,6.242-.46-5.982-.694-5.375-.092Z" transform="translate(-113.032 -125.065)" fill="#fff" fill-rule="evenodd"/>
  <path id="Path_411" data-name="Path 411" d="M197.92,158.544c7.043-1.372,14.931-.347,21.982.5a.5.5,0,0,1,.414.316c.056.109-.14.144-.2.14-7.369.161-14.921,1.578-22.155-.468C197.631,158.937,197.494,158.627,197.92,158.544Zm2.142.52a30.9,30.9,0,0,0,7.579.642c2.887-.049,5.765-.32,8.648-.5a93.589,93.589,0,0,0-15.263-.4c-.6.04-1.127.051-1.724.129.276.061.314.025.761.13Z" transform="translate(-112.864 -124.985)"/>
  <path id="Path_412" data-name="Path 412" d="M284.7,159.6l-3.782.532,1.917.532,3.835.426,6.55-.213,6.441-.739-6.175-.593-5.375-.107Z" transform="translate(-123.939 -125.192)" fill="#fff" fill-rule="evenodd"/>
  <path id="Path_413" data-name="Path 413" d="M279.952,159.81c7.05-1.511,14.964-.619,22.065.1.218.022.425.1.465.239.055.11.029.214-.148.244a.517.517,0,0,1-.127.01c-7.378.3-14.924,1.7-22.209-.2C279.79,160.148,279.557,159.9,279.952,159.81Zm9.263.918c3.06-.073,6.128-.415,9.19-.665a99.445,99.445,0,0,0-14.606-.186c-.747.052-1.727.139-2.524.2a31.062,31.062,0,0,0,7.939.653Z" transform="translate(-123.782 -125.133)"/>
  <path id="Path_414" data-name="Path 414" d="M325.509,141.269c.618.212.5.406-.173.29a35.792,35.792,0,0,0-3.719-.241c-2.4-.065-3.805-.3-4.452-.338a11.4,11.4,0,0,1-3.544-1.15c-.4-.281,4.884.122,6.936.367A24.439,24.439,0,0,1,325.509,141.269Z" transform="translate(-128.285 -122.572)" fill="#fff" fill-rule="evenodd"/>
</svg>
