<svg id="Group_728" data-name="Group 728" xmlns="http://www.w3.org/2000/svg" xmlns:xlink="http://www.w3.org/1999/xlink" width="107.05" height="31.718" viewBox="0 0 107.05 31.718">
  <defs>
    <linearGradient id="linear-gradient" x1="52.221" y1="-1.13" x2="52.151" y2="-1.094" gradientUnits="objectBoundingBox">
      <stop offset="0" stop-color="#00a0ff"/>
      <stop offset="0.007" stop-color="#00a1ff"/>
      <stop offset="0.26" stop-color="#00beff"/>
      <stop offset="0.512" stop-color="#00d2ff"/>
      <stop offset="0.76" stop-color="#00dfff"/>
      <stop offset="1" stop-color="#00e3ff"/>
    </linearGradient>
    <linearGradient id="linear-gradient-2" x1="65.678" y1="-4.227" x2="65.549" y2="-4.227" gradientUnits="objectBoundingBox">
      <stop offset="0" stop-color="#ffe000"/>
      <stop offset="0.409" stop-color="#ffbd00"/>
      <stop offset="0.775" stop-color="orange"/>
      <stop offset="1" stop-color="#ff9c00"/>
    </linearGradient>
    <linearGradient id="linear-gradient-3" x1="40.636" y1="-3.105" x2="40.563" y2="-3.009" gradientUnits="objectBoundingBox">
      <stop offset="0" stop-color="#ff3a44"/>
      <stop offset="1" stop-color="#c31162"/>
    </linearGradient>
    <linearGradient id="linear-gradient-4" x1="40.579" y1="-2.212" x2="40.612" y2="-2.169" gradientUnits="objectBoundingBox">
      <stop offset="0" stop-color="#32a071"/>
      <stop offset="0.069" stop-color="#2da771"/>
      <stop offset="0.476" stop-color="#15cf74"/>
      <stop offset="0.801" stop-color="#06e775"/>
      <stop offset="1" stop-color="#00f076"/>
    </linearGradient>
  </defs>
  <path id="Path_426" data-name="Path 426" d="M103.085,725.6H3.965A3.926,3.926,0,0,1,0,721.632V697.844a3.926,3.926,0,0,1,3.965-3.965h99.12a3.926,3.926,0,0,1,3.965,3.965v23.788A3.926,3.926,0,0,1,103.085,725.6Z" transform="translate(0 -693.879)"/>
  <path id="Path_427" data-name="Path 427" d="M103.085,694.513a3.35,3.35,0,0,1,3.33,3.33v23.788a3.351,3.351,0,0,1-3.33,3.331H3.965a3.351,3.351,0,0,1-3.33-3.331V697.844a3.35,3.35,0,0,1,3.33-3.33h99.12m0-.634H3.965A3.976,3.976,0,0,0,0,697.844v23.788A3.926,3.926,0,0,0,3.965,725.6h99.12a3.926,3.926,0,0,0,3.965-3.965V697.844A3.976,3.976,0,0,0,103.085,693.879Z" transform="translate(0 -693.879)" fill="#a6a6a6"/>
  <path id="Path_428" data-name="Path 428" d="M53.394,704.6a2.16,2.16,0,0,1-.555,1.585,2.467,2.467,0,1,1-1.745-4.2,2.113,2.113,0,0,1,.952.237,1.725,1.725,0,0,1,.713.556l-.4.4a1.479,1.479,0,0,0-1.269-.555,1.577,1.577,0,0,0-1.268.555,1.913,1.913,0,0,0,0,2.7,2.041,2.041,0,0,0,1.268.555,1.737,1.737,0,0,0,1.348-.555,1.311,1.311,0,0,0,.4-.951H51.094v-.634h2.3v.317Zm3.648-1.982H54.9v1.506h1.982v.555H54.9v1.506h2.141v.635H54.266v-4.758h2.776Zm2.617,4.2h-.634v-4.2H57.676v-.556h3.33v.556H59.658Zm3.648,0v-4.758h.634v4.758Zm3.33,0H66v-4.2H64.654v-.556h3.251v.556H66.557v4.2Zm7.533-.635a2.489,2.489,0,1,1,.713-1.744A2.333,2.333,0,0,1,74.17,706.187Zm-3.014-.4a1.871,1.871,0,0,0,1.269.555,1.579,1.579,0,0,0,1.269-.555,1.913,1.913,0,0,0,.555-1.348,1.633,1.633,0,0,0-.555-1.348,1.872,1.872,0,0,0-1.269-.555,1.577,1.577,0,0,0-1.269.555,1.911,1.911,0,0,0-.555,1.348A1.634,1.634,0,0,0,71.156,705.791Zm4.6,1.031v-4.758h.713l2.3,3.727v-3.727H79.4v4.758h-.634l-2.458-3.885v3.885Z" transform="translate(-15.808 -696.514)" fill="#fff"/>
  <path id="Path_429" data-name="Path 429" d="M69.694,717.694a3.336,3.336,0,0,0-3.409,3.41,3.384,3.384,0,0,0,3.409,3.409A3.336,3.336,0,0,0,73.1,721.1,3.29,3.29,0,0,0,69.694,717.694Zm0,5.392a2.068,2.068,0,0,1,0-4.123,1.921,1.921,0,0,1,1.9,2.061A1.969,1.969,0,0,1,69.694,723.087Zm-7.374-5.392a3.336,3.336,0,0,0-3.41,3.41,3.384,3.384,0,0,0,3.41,3.409,3.336,3.336,0,0,0,3.409-3.409A3.29,3.29,0,0,0,62.32,717.694Zm0,5.392a2.068,2.068,0,0,1,0-4.123,1.921,1.921,0,0,1,1.9,2.061A1.969,1.969,0,0,1,62.32,723.087Zm-8.8-4.362v1.427h3.41a2.994,2.994,0,0,1-.793,1.824,3.509,3.509,0,0,1-2.617,1.031,3.692,3.692,0,0,1-3.727-3.806,3.74,3.74,0,0,1,3.727-3.806,3.93,3.93,0,0,1,2.617,1.031l1.031-1.031a5.085,5.085,0,0,0-3.569-1.427,5.234,5.234,0,1,0,0,10.467,4.563,4.563,0,0,0,3.648-1.507,4.773,4.773,0,0,0,1.269-3.33,2.966,2.966,0,0,0-.08-.873Zm36,1.11a3.081,3.081,0,0,0-2.854-2.141,3.193,3.193,0,0,0-3.172,3.41,3.318,3.318,0,0,0,3.33,3.409,3.25,3.25,0,0,0,2.775-1.507l-1.11-.793a1.933,1.933,0,0,1-1.665.952,1.72,1.72,0,0,1-1.665-1.031l4.52-1.9-.159-.4Zm-4.6,1.11a1.926,1.926,0,0,1,1.745-1.982,1.4,1.4,0,0,1,1.268.714l-3.013,1.269ZM81.192,724.2H82.7v-9.911H81.192Zm-2.379-5.788a2.608,2.608,0,0,0-1.824-.793,3.407,3.407,0,0,0-3.251,3.409,3.283,3.283,0,0,0,3.251,3.33,2.278,2.278,0,0,0,1.745-.792h.079v.476a1.8,1.8,0,0,1-3.489.792l-1.268.555a3.271,3.271,0,0,0,3.013,1.982c1.744,0,3.172-1.031,3.172-3.489v-6.027H78.813v.556Zm-1.744,4.678a2.068,2.068,0,0,1,0-4.123,2.077,2.077,0,0,1,0,4.123Zm19.348-8.8H92.848V724.2h1.507V720.47h2.062a3.1,3.1,0,1,0,0-6.185Zm.079,4.757H94.355v-3.409H96.5a1.742,1.742,0,0,1,1.745,1.665,1.815,1.815,0,0,1-1.745,1.744Zm9.119-1.427A2.666,2.666,0,0,0,103,719.122l1.349.555a1.4,1.4,0,0,1,1.348-.714,1.49,1.49,0,0,1,1.586,1.269v.079a3.142,3.142,0,0,0-1.507-.4c-1.427,0-2.854.792-2.854,2.22a2.323,2.323,0,0,0,2.458,2.22,2.23,2.23,0,0,0,1.9-.951h.08v.792h1.427V720.39a3,3,0,0,0-3.172-2.775Zm-.159,5.471c-.476,0-1.189-.238-1.189-.873,0-.792.872-1.031,1.586-1.031a3.069,3.069,0,0,1,1.348.317A1.847,1.847,0,0,1,105.456,723.087Zm8.327-5.234-1.666,4.282h-.079l-1.745-4.282h-1.586l2.617,6.027-1.507,3.33h1.507l4.044-9.357ZM100.461,724.2h1.507v-9.911h-1.507Z" transform="translate(-15.693 -700.408)" fill="#fff"/>
  <g id="Group_727" data-name="Group 727" transform="translate(7.93 5.667)">
    <path id="Path_430" data-name="Path 430" d="M12.065,702.69a1.547,1.547,0,0,0-.317,1.11v17.525a1.569,1.569,0,0,0,.4,1.11l.08.079,9.832-9.832v-.159Z" transform="translate(-11.748 -702.41)" fill="url(#linear-gradient)"/>
    <path id="Path_431" data-name="Path 431" d="M30.154,719.18,26.9,715.93v-.238l3.251-3.251.08.079,3.885,2.22a1.21,1.21,0,0,1,0,2.3Z" transform="translate(-16.674 -705.579)" fill="url(#linear-gradient-2)"/>
    <path id="Path_432" data-name="Path 432" d="M25.46,720.705l-3.33-3.33-9.912,9.911c.4.4.952.4,1.665.08l11.577-6.661" transform="translate(-11.901 -707.183)" fill="url(#linear-gradient-3)"/>
    <path id="Path_433" data-name="Path 433" d="M25.46,709.145l-11.577-6.581a1.285,1.285,0,0,0-1.665.079l9.912,9.833,3.33-3.331Z" transform="translate(-11.901 -702.285)" fill="url(#linear-gradient-4)"/>
    <path id="Path_434" data-name="Path 434" d="M25.381,722.191l-11.5,6.5a1.3,1.3,0,0,1-1.586,0l-.079.08.079.079a1.3,1.3,0,0,0,1.586,0Z" transform="translate(-11.901 -708.748)" opacity="0.2" style="isolation: isolate"/>
    <path id="Path_435" data-name="Path 435" d="M12.065,727.128a1.547,1.547,0,0,1-.317-1.11v.079a1.57,1.57,0,0,0,.4,1.11v-.08Zm17.128-8.722-3.965,2.22.08.08,3.885-2.221a1.317,1.317,0,0,0,.793-1.11C29.986,717.771,29.669,718.088,29.193,718.406Z" transform="translate(-11.748 -707.183)" opacity="0.12" style="isolation: isolate"/>
    <path id="Path_436" data-name="Path 436" d="M13.73,702.634l15.462,8.8c.476.317.793.634.793,1.031a1.317,1.317,0,0,0-.793-1.11l-15.462-8.8c-1.11-.635-1.982-.159-1.982,1.11v.08C11.748,702.555,12.62,702,13.73,702.634Z" transform="translate(-11.748 -702.275)" fill="#fff" opacity="0.25" style="isolation: isolate"/>
  </g>
</svg>
