<svg id="Group_823" data-name="Group 823" xmlns="http://www.w3.org/2000/svg" xmlns:xlink="http://www.w3.org/1999/xlink" width="58.949" height="58.949" viewBox="0 0 58.949 58.949">
  <defs>
    <radialGradient id="radial-gradient" cx="0.5" cy="0.5" r="0.501" gradientTransform="matrix(0.707, -0.707, 0.707, 0.707, -0.207, 0.5)" gradientUnits="objectBoundingBox">
      <stop offset="0" stop-color="#fff"/>
      <stop offset="1"/>
    </radialGradient>
  </defs>
  <circle id="Ellipse_77" data-name="Ellipse 77" cx="21.53" cy="21.53" r="21.53" transform="translate(8.179 8.138)" fill="#232323"/>
  <path id="Path_642" data-name="Path 642" d="M182.492,176.549a13.7,13.7,0,0,0-1.968-1.246,10.461,10.461,0,0,0-1.646-.84,18.592,18.592,0,0,0-2.156-.857,21.534,21.534,0,0,0-21.7,4.582,7.657,7.657,0,0,0-.682.616,8.359,8.359,0,0,0-.656.723,16.593,16.593,0,0,0-1.478,1.749,21.835,21.835,0,0,0-3.236,19.889,13.8,13.8,0,0,0,.812,2.194c.264.542.53,1.118.827,1.651a17.2,17.2,0,0,0,1.243,1.956,20.722,20.722,0,0,0,2.355,2.851,21.8,21.8,0,0,0,15.615,6.444h.106l2.141-.091.068-.026a14.44,14.44,0,0,0,1.8-.276l2.3-.569a21.731,21.731,0,0,0,14.391-14.262,14.393,14.393,0,0,0,.6-2.255c.134-.616.228-1.232.307-1.833l.127-2.311a21.819,21.819,0,0,0-6.332-15.7A23.009,23.009,0,0,0,182.492,176.549Zm-4.31-.4a13.7,13.7,0,0,1,1.493.755.079.079,0,0,0,.033.023L173.8,188.4a6.964,6.964,0,0,0-1.646-.829l5.894-11.489A.887.887,0,0,0,178.183,176.147Zm-2.308-.916-7.255,12.018L158.1,178.041A20.167,20.167,0,0,1,175.875,175.231Zm-7.5,17.727a1.978,1.978,0,1,1-.021,2.792A1.951,1.951,0,0,1,168.373,192.957Zm-13.412-12.14a.956.956,0,0,1,.134-.173c.134-.149.265-.281.415-.431l.2-.2a5.965,5.965,0,0,1,.556-.5l.025-.025,9.1,9.161a6.131,6.131,0,0,0-.723.631,5.939,5.939,0,0,0-.624.716Zm-1.461,1.767,9.148,10.583.006.006-.005.005L150.6,200.335A20.119,20.119,0,0,1,153.5,182.585Zm-1.3,21.531a16.879,16.879,0,0,1-.762-1.512c0-.014-.026-.055-.025-.08l11.541-5.818a7.008,7.008,0,0,0,.812,1.681l-11.533,5.8A.433.433,0,0,0,152.194,204.116Zm17.323,10.334a19.967,19.967,0,0,1-14.031-5.916,22.592,22.592,0,0,1-2-2.39l.128-.062,12.764-5.331Zm4.149-.376h-.081a10.362,10.362,0,0,1-1.62.255l-.107.012-1.987-12.747a6.384,6.384,0,0,0,1.855-.274Zm10.269-5.434a19.784,19.784,0,0,1-7.987,4.84L174.8,199.552l14,1.183A19.617,19.617,0,0,1,183.934,208.639Zm5.792-11.938c-.088.567-.147,1.124-.28,1.739-.007.007,0,.025.006.049l-12.764-2.055a7.047,7.047,0,0,0,.29-1.868l12.74,2.087A.238.238,0,0,1,189.727,196.7Zm.106-2.37-13.685-3.325,5.488-12.825a17.351,17.351,0,0,1,2.384,2.051A19.755,19.755,0,0,1,189.832,194.331Z" transform="translate(-140.286 -164.903)" stroke="#919191" stroke-miterlimit="10" stroke-width="1" fill="url(#radial-gradient)"/>
  <path id="Path_643" data-name="Path 643" d="M169.472,192.6a1.05,1.05,0,1,1-1.484,0A1.052,1.052,0,0,1,169.472,192.6Z" transform="translate(-142.921 -167.538)" fill="#555"/>
  <path id="Path_644" data-name="Path 644" d="M168.443,199.416a1.051,1.051,0,1,1-1.485,0A1.049,1.049,0,0,1,168.443,199.416Z" transform="translate(-142.784 -168.445)" fill="#555"/>
  <path id="Path_645" data-name="Path 645" d="M174.556,202.566a1.05,1.05,0,1,1-1.483,0A1.049,1.049,0,0,1,174.556,202.566Z" transform="translate(-143.597 -168.864)" fill="#555"/>
  <path id="Path_646" data-name="Path 646" d="M179.453,197.669a1.05,1.05,0,1,1-1.484,0A1.054,1.054,0,0,1,179.453,197.669Z" transform="translate(-144.248 -168.213)" fill="#555"/>
  <path id="Path_647" data-name="Path 647" d="M176.317,191.543a1.05,1.05,0,1,1-1.485,0A1.046,1.046,0,0,1,176.317,191.543Z" transform="translate(-143.831 -167.398)" fill="#555"/>
  <path id="Path_648" data-name="Path 648" d="M170.621,195.236a2.911,2.911,0,1,0,4.124,0A2.918,2.918,0,0,0,170.621,195.236Zm3.447,3.447a1.979,1.979,0,0,1-2.8-.021,1.951,1.951,0,0,1,.021-2.792,1.978,1.978,0,0,1,2.782,2.813Z" transform="translate(-143.199 -167.817)" fill="#5a5a5a"/>
  <path id="Path_649" data-name="Path 649" d="M147.757,172.368a29.477,29.477,0,1,0,41.678.009A29.473,29.473,0,0,0,147.757,172.368Zm42.607,21.11-.122,2.3c-.084.6-.177,1.209-.307,1.823a13.965,13.965,0,0,1-.6,2.241,21.629,21.629,0,0,1-14.314,14.192l-2.278.562a13.838,13.838,0,0,1-1.795.275l-.071.023-2.128.092-.1,0a21.656,21.656,0,0,1-15.53-6.407,20.923,20.923,0,0,1-2.35-2.837,18.091,18.091,0,0,1-1.23-1.946c-.3-.53-.563-1.106-.82-1.641a12.736,12.736,0,0,1-.813-2.182,21.732,21.732,0,0,1,3.223-19.793,17.707,17.707,0,0,1,1.474-1.731,6.761,6.761,0,0,1,.645-.721,6.348,6.348,0,0,1,.686-.609,18.828,18.828,0,0,1,1.763-1.474,21.877,21.877,0,0,1,19.824-3.085,19.147,19.147,0,0,1,2.145.851,12.168,12.168,0,0,1,1.641.835,14.64,14.64,0,0,1,1.952,1.238,22.77,22.77,0,0,1,2.821,2.381A21.735,21.735,0,0,1,190.365,193.479Z" transform="translate(-139.122 -163.741)" fill="#141414"/>
</svg>
